<?xml version="1.0" encoding="utf-8"?>
<svg viewBox="0 0 24 24" fill="none" xmlns="http://www.w3.org/2000/svg">
  <path d="M9.42857 12.875L14.5714 16.8125M14.5714 7.625L9.42857 11.125M6 12.0357V11.9643C6 11.0175 6.76751 10.25 7.71429 10.25C8.66106 10.25 9.42857 11.0175 9.42857 11.9643V12.0357C9.42857 12.9825 8.66106 13.75 7.71429 13.75C6.76751 13.75 6 12.9825 6 12.0357ZM14.5714 6.78571V6.71429C14.5714 5.76751 15.3389 5 16.2857 5C17.2325 5 18 5.76751 18 6.71429V6.78571C18 7.73249 17.2325 8.5 16.2857 8.5C15.3389 8.5 14.5714 7.73249 14.5714 6.78571ZM14.5714 17.2857V17.2143C14.5714 16.2675 15.3389 15.5 16.2857 15.5C17.2325 15.5 18 16.2675 18 17.2143V17.2857C18 18.2325 17.2325 19 16.2857 19C15.3389 19 14.5714 18.2325 14.5714 17.2857Z" stroke="#464455" stroke-linecap="round" stroke-linejoin="round"/>
</svg>